<svg width="288" height="288" xmlns="http://www.w3.org/2000/svg" xmlns:xlink="http://www.w3.org/1999/xlink" xml:space="preserve" overflow="hidden"><g transform="translate(-77 -72)"><path d="M296 122.934 266 122.934 266 149.538 221 106.8 96.701 224.874 116.168 244.338 131 230.292 131 326.928 206 326.958 206 251.982 236 251.982 236 326.982 311 327 311 230.166 325.907 244.266 345.299 224.877 296 178.038ZM272 128.934 290 128.934 290 172.338 272 155.238ZM305 321 242 320.973 242 245.973 200 245.973 200 320.955 137 320.931 137 224.61 221 145.062 305 224.493ZM116.279 235.968 105.299 225 221 115.068 336.701 225 325.79 235.896 221 136.8Z" fill="#7D9AAC"/><path d="M149 281.934 185 281.934 185 245.934 149 245.934ZM155 251.934 179 251.934 179 275.934 155 275.934Z" fill="#7D9AAC"/><path d="M293 245.934 257 245.934 257 281.934 293 281.934ZM287 275.934 263 275.934 263 251.934 287 251.934Z" fill="#7D9AAC"/></g></svg>